<svg width="20" height="20" viewBox="0 0 20 20" fill="none" xmlns="http://www.w3.org/2000/svg">
<path d="M3.07692 6.42241C3.07692 2.8566 6.19674 0 10 0C13.8033 0 16.9231 2.8566 16.9231 6.42241C16.9231 7.65135 16.4825 8.86415 15.8724 9.96239C15.4513 10.7205 14.9378 11.4444 14.4007 12.1076C15.7287 12.3629 16.9025 12.7337 17.8227 13.1994C18.9875 13.7891 20 14.67 20 15.8537C20 16.599 19.5886 17.2294 19.0261 17.7214C18.4642 18.2129 17.6935 18.6219 16.8062 18.9502C15.0264 19.6085 12.6198 20 10 20C7.3802 20 4.97366 19.6085 3.19388 18.9502C2.30643 18.6219 1.53581 18.2129 0.973908 17.7214C0.411344 17.2294 0 16.599 0 15.8537C0 14.67 1.01249 13.7891 2.17735 13.1994C3.09753 12.7337 4.27125 12.3629 5.59927 12.1076C5.06214 11.4444 4.54877 10.7205 4.12758 9.96239C3.5175 8.86415 3.07692 7.65135 3.07692 6.42241ZM12.3383 12.1877C12.3635 12.1553 12.3915 12.1248 12.4217 12.0968L12.4936 12.0177C13.24 11.1918 13.9709 10.2529 14.5122 9.27859C15.056 8.29979 15.3846 7.3276 15.3846 6.42241C15.3846 3.70337 12.9947 1.46341 10 1.46341C7.00531 1.46341 4.61539 3.70337 4.61539 6.42241C4.61539 7.3276 4.94404 8.29979 5.48781 9.27859C6.02908 10.2529 6.75997 11.1918 7.50639 12.0177L7.57824 12.0968C7.60855 12.1248 7.63652 12.1553 7.66175 12.1877C8.35395 12.9376 9.03682 13.5728 9.55939 14.0302C9.72431 14.1746 9.87282 14.3008 10 14.4069C10.1272 14.3008 10.2757 14.1746 10.4406 14.0302C10.9632 13.5728 11.6461 12.9376 12.3383 12.1877ZM2.90008 14.4913C1.83982 15.028 1.53846 15.5349 1.53846 15.8537C1.53846 16.0512 1.64365 16.3191 2.01523 16.6442C2.38747 16.9698 2.96856 17.2966 3.75151 17.5863C5.31249 18.1637 7.52134 18.5366 10 18.5366C12.4787 18.5366 14.6875 18.1637 16.2485 17.5863C17.0314 17.2966 17.6125 16.9698 17.9848 16.6442C18.3563 16.3191 18.4615 16.0512 18.4615 15.8537C18.4615 15.5349 18.1602 15.028 17.0999 14.4913C16.1722 14.0217 14.8479 13.6327 13.2617 13.4017C12.6063 14.0917 11.9753 14.6755 11.4825 15.107C11.1857 15.3667 10.9378 15.5723 10.7629 15.7139C10.6754 15.7847 10.6061 15.8395 10.5579 15.8772C10.5338 15.896 10.5151 15.9106 10.5019 15.9207L10.4867 15.9325L10.48 15.9375C10.4799 15.9376 10.48 15.9375 10 15.3658L10.48 15.9375C10.1993 16.1508 9.80041 16.1506 9.51959 15.9373L9.51333 15.9325L9.49805 15.9207C9.48492 15.9106 9.46616 15.896 9.44205 15.8772C9.39395 15.8395 9.32462 15.7847 9.23713 15.7139C9.06215 15.5723 8.81426 15.3667 8.51754 15.107C8.02472 14.6755 7.3937 14.0917 6.73826 13.4017C5.15206 13.6327 3.82778 14.0217 2.90008 14.4913ZM9.51959 15.9373C9.5198 15.9374 9.52 15.9375 10 15.3658L9.51959 15.9373ZM9.09344 5.72302C9.59405 5.24676 10.4058 5.24676 10.9066 5.72302C11.4072 6.19926 11.4072 6.97141 10.9066 7.44766C10.4058 7.9239 9.59405 7.9239 9.09344 7.44766C8.59272 6.97141 8.59272 6.19926 9.09344 5.72302ZM11.9944 8.48245C13.0959 7.4347 13.0959 5.73597 11.9944 4.68823C10.8929 3.64048 9.10708 3.64048 8.00554 4.68823C6.90408 5.73597 6.90408 7.4347 8.00554 8.48245C9.10708 9.5302 10.8929 9.5302 11.9944 8.48245Z" fill="#007AFF" fill-opacity="0.85"/>
</svg>
