<svg width="17" height="20" viewBox="0 0 17 20" fill="none" xmlns="http://www.w3.org/2000/svg">
<path d="M9.10463 1.35592C10.9125 -0.451975 13.8434 -0.451975 15.6513 1.35592C17.4592 3.16382 17.4592 6.09469 15.6513 7.90257L8.41933 15.1346C7.30043 16.2535 5.48556 16.2535 4.36667 15.1346C3.24778 14.0157 3.24778 12.2008 4.36667 11.082L9.85263 5.59591C10.1455 5.30302 10.6204 5.30302 10.9133 5.59591C11.2062 5.88881 11.2062 6.36368 10.9133 6.65658L5.42733 12.1426C4.89422 12.6757 4.89422 13.5408 5.42733 14.074C5.96044 14.6071 6.82553 14.6071 7.35863 14.074L14.5906 6.84192C15.8127 5.61981 15.8127 3.63868 14.5906 2.41658C13.3685 1.19447 11.3874 1.19447 10.1653 2.41658L2.93333 9.64857C1.02222 11.5597 1.02222 14.6568 2.93333 16.568C4.84444 18.4791 7.94153 18.4791 9.85263 16.568L14.2416 12.179C14.5345 11.8861 15.0094 11.8861 15.3023 12.179C15.5952 12.4718 15.5952 12.9467 15.3023 13.2396L10.9133 17.6286C8.41643 20.1255 4.36956 20.1255 1.87267 17.6286C-0.624223 15.1317 -0.624223 11.0848 1.87267 8.58797L9.10463 1.35592Z" fill="#007AFF" fill-opacity="0.85"/>
</svg>
