<svg width="24" height="24" viewBox="0 0 24 24" fill="none" xmlns="http://www.w3.org/2000/svg">
<g clip-path="url(#clip0_73_504)">
<mask id="mask0_73_504" style="mask-type:luminance" maskUnits="userSpaceOnUse" x="0" y="0" width="24" height="24">
<path d="M24 0H0V24H24V0Z" fill="white"/>
</mask>
<g mask="url(#mask0_73_504)">
<path d="M21.4 14.4C20.6 13.6 19.2999 13.5 18.4 14.2L16.7 15.5V15.2C16.7 14.2 16 13.3 15 13L12.7 12.4C11.2 12 9.59995 12.3 8.39995 13.2L7.69995 13.7C7.49995 12.9 6.79995 12.3 5.99995 12.3H3.99995C2.99995 12.3 2.19995 13.1 2.19995 14.1V20.1C2.19995 21.1 2.99995 21.9 3.99995 21.9H5.99995C6.69995 21.9 7.29995 21.5 7.59995 20.9H8.49995C8.79995 20.9 8.99995 20.9 9.29995 21L11.9 21.7C12.3 21.8 12.7 21.8 13 21.8C13.3 21.8 13.6 21.8 13.9 21.7L16.8 21.1C17.7 20.9 18.6 20.5 19.2 19.8L21.2999 17.7C22.2999 16.7 22.2999 15.3 21.4 14.4ZM5.99995 20.3H3.99995C3.89995 20.3 3.79995 20.2 3.79995 20.1V14.1C3.79995 14 3.89995 13.9 3.99995 13.9H5.99995C6.09995 13.9 6.19995 14 6.19995 14.1V20.1C6.19995 20.1 6.09995 20.3 5.99995 20.3ZM20.2999 16.5L18.2 18.6C17.7 19.1 17.2 19.4 16.5 19.5L13.6 20.1C13.1 20.2 12.6 20.2 12.2 20.1L9.59995 19.4C9.19995 19.3 8.79995 19.3 8.39995 19.3H7.69995V15.5L9.19995 14.5C10.1 13.9 11.3 13.7 12.3 14L14.6 14.6C14.9 14.7 15.2 15 15.2 15.3V15.6C15.2 16 14.9 16.4 14.4 16.4H13C12.6 16.4 12.2 16.7 12.2 17.2C12.2 17.7 12.5 18 13 18H15.3C15.9 18 16.5 17.8 16.9 17.4L19.2999 15.6C19.5999 15.4 20 15.4 20.2999 15.7C20.5999 15.8 20.5999 16.2 20.2999 16.5Z" fill="#007AFF" fill-opacity="0.85"/>
<path d="M14.5 10.6C14.6 10.7 14.8 10.8 15 10.8C15.2 10.8 15.3 10.7 15.5 10.6C16.7 9.69999 17.9 8.39999 19.2 6.79999C20 5.69999 19.8 3.99999 18.7 2.89999C17.6 1.99999 16 1.99999 14.9 2.99999C13.7999 2.09999 12.3 1.99999 11.2 2.99999C9.99995 3.99999 9.89995 5.79999 10.8 6.99999C12.1 8.49999 13.3 9.69999 14.5 10.6ZM12.2 4.09999C12.5 3.89999 12.8 3.79999 13.1 3.79999C13.5 3.79999 13.8 3.89999 14.1 4.19999L14.4 4.59999C14.7 4.89999 15.2 4.89999 15.5 4.59999L15.8 4.19999C16.3 3.69999 17.1 3.59999 17.7 4.09999C18.2 4.59999 18.2999 5.29999 17.9 5.89999C16.9 7.19999 15.9 8.19999 14.9 8.99999C14 8.19999 13 7.19999 12 5.99999C11.6 5.39999 11.6 4.59999 12.2 4.09999Z" fill="#007AFF" fill-opacity="0.85"/>
</g>
</g>
<defs>
<clipPath id="clip0_73_504">
<rect width="24" height="24" fill="white"/>
</clipPath>
</defs>
</svg>
