<svg width="20" height="13" viewBox="0 0 20 13" fill="none" xmlns="http://www.w3.org/2000/svg">
<path d="M8.57668 1.83904C9.36272 1.06441 10.6372 1.06441 11.4232 1.83904C12.2092 2.61367 12.2092 3.86959 11.4232 4.64422C10.6372 5.41885 9.36272 5.41885 8.57668 4.64422C7.79068 3.86959 7.79068 2.61368 8.57668 1.83904ZM12.3259 0.949449C11.0413 -0.316483 8.95864 -0.316483 7.67403 0.949449C6.38946 2.21539 6.38945 4.26788 7.67403 5.53384C8.95864 6.79971 11.0413 6.79971 12.3259 5.53384C13.6105 4.26788 13.6105 2.21538 12.3259 0.949449ZM15.4995 4.8679C15.9226 4.45095 16.6085 4.45095 17.0317 4.8679C17.4547 5.28483 17.4547 5.96091 17.0317 6.37784C16.6085 6.79476 15.9226 6.79476 15.4995 6.37784C15.0763 5.96091 15.0763 5.28483 15.4995 4.8679ZM17.9343 3.97832C17.0127 3.07005 15.5184 3.07005 14.5968 3.97832C13.6751 4.8866 13.6751 6.35914 14.5968 7.26746C15.5184 8.17571 17.0127 8.17571 17.9343 7.26746C18.8559 6.35914 18.8559 4.8866 17.9343 3.97832ZM4.50056 4.8679C4.07747 4.45095 3.3915 4.45095 2.9684 4.8679C2.54531 5.28483 2.54531 5.96091 2.9684 6.37784C3.3915 6.79476 4.07747 6.79476 4.50056 6.37784C4.92366 5.96091 4.92366 5.28483 4.50056 4.8679ZM2.06571 3.97832C2.98735 3.07005 4.48162 3.07005 5.40325 3.97832C6.32489 4.8866 6.32489 6.35914 5.40325 7.26746C4.48162 8.17571 2.98735 8.17571 2.06571 7.26746C1.14408 6.35914 1.14408 4.8866 2.06571 3.97832ZM16.5523 8.72582C16.1998 8.72582 15.914 9.00746 15.914 9.35486C15.914 9.70226 16.1998 9.98389 16.5523 9.98389H17.234C18.0569 9.98389 18.7234 10.6408 18.7234 11.4516V12.3709C18.7234 12.7183 19.0092 12.9999 19.3617 12.9999C19.7142 12.9999 20 12.7183 20 12.3709V11.4516C20 9.94598 18.7619 8.72582 17.234 8.72582H16.5523ZM2.76596 9.98389C1.94316 9.98389 1.2766 10.6408 1.2766 11.4516V12.3709C1.2766 12.7183 0.990817 12.9999 0.638298 12.9999C0.285775 12.9999 0 12.7183 0 12.3709V11.4516C0 9.94598 1.23812 8.72582 2.76596 8.72582H3.44766C3.80018 8.72582 4.08596 9.00746 4.08596 9.35486C4.08596 9.70226 3.80018 9.98389 3.44766 9.98389H2.76596ZM8.43404 7.46364C6.43642 7.46364 4.81702 9.05955 4.81702 11.0282V12.371C4.81702 12.7184 5.1028 13 5.45532 13C5.80785 13 6.09362 12.7184 6.09362 12.371V11.0282C6.09362 9.75434 7.14146 8.72171 8.43404 8.72171H11.5651C12.8577 8.72171 13.9055 9.75434 13.9055 11.0282V12.371C13.9055 12.7184 14.1913 13 14.5438 13C14.8963 13 15.1821 12.7184 15.1821 12.371V11.0282C15.1821 9.05955 13.5627 7.46364 11.5651 7.46364H8.43404Z" fill="#007AFF" fill-opacity="0.85"/>
</svg>
