<svg width="13" height="17" viewBox="0 0 13 17" fill="none" xmlns="http://www.w3.org/2000/svg">
<path d="M1.85715 16.0556V14.1667H0.928574C0.665479 14.1667 0.445098 14.076 0.267432 13.8947C0.0897652 13.7133 0.000622249 13.4892 3.20197e-06 13.2222C-0.000615845 12.9553 0.0885271 12.7311 0.267432 12.5498C0.446337 12.3684 0.666717 12.2778 0.928574 12.2778H1.85715V10.3889H0.928574C0.665479 10.3889 0.445098 10.2982 0.267432 10.1169C0.0897652 9.93555 0.000622249 9.71141 3.20197e-06 9.44444C-0.000615845 9.17748 0.0885271 8.95333 0.267432 8.772C0.446337 8.59066 0.666717 8.5 0.928574 8.5H1.85715V0.944444C1.85715 0.676852 1.94629 0.452704 2.12457 0.272C2.30286 0.0912964 2.52324 0.000629629 2.78572 0H7.89286C9.31667 0 10.5238 0.503703 11.5143 1.51111C12.5048 2.51852 13 3.7463 13 5.19444C13 6.64259 12.5048 7.87037 11.5143 8.87778C10.5238 9.88518 9.31667 10.3889 7.89286 10.3889H3.71429V12.2778H6.5C6.7631 12.2778 6.98379 12.3684 7.16207 12.5498C7.34036 12.7311 7.42919 12.9553 7.42857 13.2222C7.42795 13.4892 7.33881 13.7136 7.16114 13.8956C6.98348 14.0776 6.7631 14.1679 6.5 14.1667H3.71429V16.0556C3.71429 16.3231 3.62514 16.5476 3.44686 16.7289C3.26857 16.9103 3.04819 17.0006 2.78572 17C2.52324 16.9994 2.30286 16.9087 2.12457 16.728C1.94629 16.5473 1.85715 16.3231 1.85715 16.0556ZM3.71429 8.5H7.89286C8.79048 8.5 9.55655 8.17731 10.1911 7.53194C10.8256 6.88657 11.1429 6.10741 11.1429 5.19444C11.1429 4.28148 10.8256 3.50231 10.1911 2.85694C9.55655 2.21157 8.79048 1.88889 7.89286 1.88889H3.71429V8.5Z" fill="#007AFF" fill-opacity="0.85"/>
</svg>
