<svg width="20" height="20" viewBox="0 0 20 20" fill="none" xmlns="http://www.w3.org/2000/svg">
<path d="M5.36585 0.731707C5.36585 0.3276 5.03825 0 4.63415 0C4.23004 0 3.90244 0.3276 3.90244 0.731707V0.97561H2.68293C1.20077 0.97561 0 2.17638 0 3.65854V5.60976V14.3902C0 15.8724 1.20077 17.0732 2.68293 17.0732H9.46234C10.4139 18.8172 12.2641 20 14.3902 20C17.4891 20 20 17.4879 20 14.3902C20 12.2639 18.8171 10.4138 17.0732 9.46234V5.60976V3.65854C17.0732 2.17638 15.8724 0.97561 14.3902 0.97561H13.1707V0.731707C13.1707 0.3276 12.8431 0 12.439 0C12.0349 0 11.7073 0.3276 11.7073 0.731707V0.97561H5.36585V0.731707ZM16.0174 10.5752C16.038 10.5855 16.0591 10.5946 16.0808 10.6029C17.5282 11.25 18.5366 12.7023 18.5366 14.3902C18.5366 16.6799 16.6807 18.5366 14.3902 18.5366C12.702 18.5366 11.2492 17.5276 10.6024 16.0795C10.5944 16.0587 10.5856 16.0384 10.5758 16.0186C10.3621 15.5187 10.2439 14.9683 10.2439 14.3902C10.2439 12.1563 12.16 10.2415 14.3934 10.2439C14.9697 10.2443 15.5188 10.3623 16.0174 10.5752ZM15.6098 8.91337C15.2186 8.82663 14.8118 8.78078 14.3946 8.78049C11.352 8.77727 8.78049 11.3482 8.78049 14.3902C8.78049 14.8091 8.82634 15.2172 8.91337 15.6098H2.68293C2.00899 15.6098 1.46341 15.0642 1.46341 14.3902V6.34146H15.6098V8.91337ZM3.90244 2.43902V2.68293C3.90244 3.08703 4.23004 3.41463 4.63415 3.41463C5.03825 3.41463 5.36585 3.08703 5.36585 2.68293V2.43902H11.7073V2.68293C11.7073 3.08703 12.0349 3.41463 12.439 3.41463C12.8431 3.41463 13.1707 3.08703 13.1707 2.68293V2.43902H14.3902C15.0642 2.43902 15.6098 2.9846 15.6098 3.65854V4.87805H1.46341V3.65854C1.46341 2.9846 2.00899 2.43902 2.68293 2.43902H3.90244ZM7.56098 8.53756C7.56098 7.99971 7.9959 7.56098 8.53659 7.56098C9.07532 7.56098 9.5122 7.99785 9.5122 8.53659C9.5122 9.07444 9.07678 9.51073 8.53922 9.5122C7.99659 9.51473 7.56098 9.07444 7.56098 8.53756ZM8.53922 9.5122H8.54185L8.53834 9.02439H8.53659V9.5122H8.53922ZM14.3902 11.7073C14.7943 11.7073 15.122 12.0349 15.122 12.439V13.6585H16.3415C16.7456 13.6585 17.0732 13.9861 17.0732 14.3902C17.0732 14.7943 16.7456 15.122 16.3415 15.122H15.122V16.3415C15.122 16.7456 14.7943 17.0732 14.3902 17.0732C13.9861 17.0732 13.6585 16.7456 13.6585 16.3415V15.122H12.439C12.0349 15.122 11.7073 14.7943 11.7073 14.3902C11.7073 13.9861 12.0349 13.6585 12.439 13.6585H13.6585V12.439C13.6585 12.0349 13.9861 11.7073 14.3902 11.7073Z" fill="#007AFF" fill-opacity="0.85"/>
</svg>
