<svg width="19" height="18" viewBox="0 0 19 18" fill="none" xmlns="http://www.w3.org/2000/svg">
<path d="M7.48076 1.01135C8.14596 -0.337196 10.0701 -0.337116 10.7351 1.01158L12.5656 4.7228L16.6592 5.31804C18.1488 5.53454 18.7417 7.36372 17.6649 8.41332L14.7013 11.2993L15.4006 15.3764C15.6547 16.8581 14.0998 17.988 12.7688 17.2893L9.10736 15.365L5.44663 17.2889C4.11411 17.9902 2.56033 16.8568 2.81415 15.3765L3.51346 11.2993L0.550112 8.41352C-0.527328 7.36342 0.0677216 5.53448 1.55539 5.31806L5.64927 4.72278L7.48076 1.01135Z" fill="#007AFF" fill-opacity="0.85"/>
<path d="M7.92871 1.23242C8.41047 0.255761 9.80429 0.255976 10.2861 1.23242H10.2871L12.1172 4.94434L12.2334 5.17969L12.4932 5.21777L16.5869 5.8125C17.6658 5.9693 18.0959 7.294 17.3164 8.05469L14.3525 10.9414L14.1641 11.125L14.208 11.3838L14.9082 15.4609C15.0807 16.4669 14.1012 17.2498 13.1836 16.9268L13.001 16.8467L9.33984 14.9229L9.10742 14.7998L8.875 14.9229L5.21387 16.8467C4.24938 17.3543 3.12264 16.534 3.30664 15.4609L4.00586 11.3838L4.05078 11.125L3.8623 10.9414L0.899414 8.05566C0.119008 7.29506 0.549371 5.96954 1.62695 5.8125L5.72168 5.21777L5.98145 5.17969L6.09766 4.94434L7.92871 1.23242Z" stroke="#007AFF" stroke-opacity="0.85"/>
</svg>
