<svg width="16" height="16" viewBox="0 0 16 16" fill="none" xmlns="http://www.w3.org/2000/svg">
<path d="M3.11853 3.11853C0.960492 5.27656 0.960492 8.7754 3.11853 10.9335C5.25654 13.0715 8.7106 13.0913 10.8731 10.993C10.8905 10.9711 10.9094 10.9499 10.9297 10.9296C10.95 10.9094 10.9711 10.8905 10.993 10.873C13.0913 8.7106 13.0715 5.25652 10.9335 3.11853C8.7754 0.960492 5.27656 0.960492 3.11853 3.11853ZM11.4359 12.4965C8.6767 14.7263 4.62255 14.5588 2.05787 11.9941C-0.685957 9.2503 -0.685957 4.80169 2.05787 2.05787C4.80169 -0.685957 9.2503 -0.685957 11.9941 2.05787C14.5588 4.62253 14.7263 8.6766 12.4965 11.4358L15.2804 14.2196C15.5732 14.5125 15.5732 14.9874 15.2804 15.2803C14.9875 15.5732 14.5126 15.5732 14.2197 15.2803L11.4359 12.4965Z" fill="white"/>
</svg>
