<svg width="30" height="30" viewBox="0 0 30 30" fill="none" xmlns="http://www.w3.org/2000/svg">
<path d="M14.2725 0.260783C14.6975 -0.0869713 15.3088 -0.0869249 15.7338 0.260906L28.4485 10.6664C29.4314 11.4693 30 12.6732 30 13.94V25.7692C30 28.1065 28.1065 30 25.7692 30H4.23077C1.89352 30 0 28.1065 0 25.7692V13.9415C0 12.6737 0.568246 11.4695 1.55337 10.6662C1.55314 10.6664 1.55362 10.666 1.55337 10.6662L14.2725 0.260783ZM15.0029 2.64472L3.01206 12.4545C2.56686 12.8172 2.30769 13.3635 2.30769 13.9415V25.7692C2.30769 26.832 3.16802 27.6923 4.23077 27.6923H25.7692C26.832 27.6923 27.6923 26.832 27.6923 25.7692V13.94C27.6923 13.3637 27.4332 12.8168 26.9885 12.4537L15.0029 2.64472Z" fill="white"/>
</svg>
