<svg width="44" height="26" viewBox="0 0 44 26" fill="none" xmlns="http://www.w3.org/2000/svg">
<path d="M43.9472 16.8871C40.0488 21.0033 35.486 21.8851 31.5876 21.6635C30.0036 21.5749 28.5296 21.2958 27.258 20.9635C27.7508 20.6489 28.2612 20.3033 28.7716 19.9266C31.6536 17.8043 35.1604 14.2641 35.1604 9.37687C35.1604 5.8012 33.1672 2.67304 30.36 1.09567C27.8828 -0.295603 24.794 -0.468404 21.9956 1.19758C19.1972 -0.468404 16.104 -0.295603 13.6312 1.09567C10.8284 2.67304 8.8308 5.79677 8.8308 9.37687C8.8308 14.2641 12.3376 17.8087 15.2196 19.9266C15.73 20.3033 16.2404 20.6489 16.7332 20.9635C15.4616 21.2958 13.9876 21.5749 12.4036 21.6635C8.5052 21.8895 3.9424 21.0033 0.044 16.8871C0.0308 16.8738 0.0132 16.8561 0 16.8428C0.0044 19.005 0.022 20.9103 0.0924 22.594C0.2376 22.6915 0.3828 22.7889 0.5368 22.8864C4.5584 25.5228 8.8924 26.1785 12.65 25.9614C15.5716 25.793 18.1368 25.1107 19.9672 24.4727C20.8032 24.1847 21.4896 23.9011 22 23.6751C22.5104 23.9011 23.2012 24.1847 24.0328 24.4727C25.8588 25.1063 28.4284 25.793 31.35 25.9614C35.1076 26.1785 39.4372 25.5228 43.4632 22.8864C43.6128 22.7889 43.7624 22.6915 43.9076 22.594C43.978 20.9103 43.9956 19.005 44 16.8428C43.9868 16.8561 43.9692 16.8738 43.956 16.8871H43.9472ZM22.7524 18.5841C22.4664 18.7303 22.2112 18.8499 21.9956 18.9519C21.78 18.8499 21.5248 18.7259 21.2388 18.5841C20.2752 18.0967 19.008 17.3789 17.754 16.4573C15.1228 14.521 13.1208 12.1018 13.1208 9.37687C13.1208 7.41845 14.2252 5.69929 15.7256 4.85301C17.138 4.05989 18.9112 4.01558 20.6008 5.47332L21.9956 6.67407L23.3904 5.47332C25.0844 4.01558 26.8576 4.05989 28.2656 4.85301C29.766 5.69929 30.8704 7.41402 30.8704 9.37687C30.8704 12.1018 28.864 14.521 26.2372 16.4573C24.9832 17.3834 23.7116 18.0967 22.7524 18.5841Z" fill="white"/>
<path d="M22.251 1.62695C24.8834 0.0597979 27.7812 0.220421 30.1152 1.53125C32.7701 3.023 34.6602 5.98786 34.6602 9.37695C34.6601 14.0131 31.3284 17.4235 28.4756 19.5244H28.4746C27.9748 19.8932 27.474 20.2325 26.9893 20.542L26.0244 21.1582L27.1318 21.4473C28.2658 21.7436 29.5616 21.9999 30.9561 22.1201L31.5596 22.1631C35.2948 22.3753 39.6562 21.5968 43.4941 18.0371C43.4859 19.6071 43.4653 21.028 43.416 22.3184C43.3415 22.3673 43.2669 22.418 43.1904 22.4678H43.1895C39.2741 25.0317 35.0576 25.6745 31.3789 25.4619C28.5163 25.2969 25.9929 24.6234 24.1963 24C23.3796 23.7172 22.7016 23.4389 22.2021 23.2178L22 23.1279L21.7979 23.2178C21.2978 23.4392 20.6247 23.7175 19.8047 24L19.8027 24.001C18.0027 24.6284 15.484 25.2969 12.6211 25.4619C8.94224 25.6745 4.72131 25.0324 0.810547 22.4688V22.4678L0.804688 22.4639L0.583008 22.3174C0.533826 21.0295 0.513107 19.6114 0.504883 18.0449C4.3405 21.5984 8.6984 22.3783 12.4316 22.1621C14.0559 22.0712 15.5634 21.7859 16.8594 21.4473L17.9668 21.1582L17.002 20.542C16.5172 20.2325 16.0164 19.8932 15.5166 19.5244L15.5156 19.5234C12.6635 17.4274 9.3311 14.0132 9.33105 9.37695C9.33105 5.98402 11.225 3.02331 13.876 1.53125C16.2053 0.220692 19.1077 0.0597009 21.7402 1.62695L21.9951 1.7793L22.251 1.62695ZM25.8926 3.82129C24.9451 3.90338 23.9814 4.30571 23.0645 5.09473L21.9951 6.01367L20.9268 5.09473H20.9277C20.0129 4.30544 19.0501 3.90342 18.1025 3.82129C17.1576 3.73943 16.2613 3.97851 15.4805 4.41699L15.4795 4.41797C13.8273 5.35015 12.6211 7.23261 12.6211 9.37695C12.6211 12.3514 14.7955 14.9011 17.458 16.8604C18.7399 17.8024 20.032 18.5342 21.0127 19.0303L21.0166 19.0322C21.3044 19.1749 21.563 19.3007 21.7822 19.4043L21.9951 19.5049L22.209 19.4043C22.423 19.3032 22.6853 19.1787 22.9795 19.0283C23.8317 18.5952 24.9318 17.9856 26.0527 17.2051L26.5342 16.8594C29.1914 14.9006 31.3701 12.3515 31.3701 9.37695C31.3701 7.22794 30.1637 5.35003 28.5117 4.41797L28.5107 4.41699C27.7319 3.97836 26.8372 3.73955 25.8926 3.82129Z" stroke="#007AFF" stroke-opacity="0.85"/>
</svg>
