<svg width="33" height="30" viewBox="0 0 33 30" fill="none" xmlns="http://www.w3.org/2000/svg">
<path d="M3.41379 15C3.41379 6.71506 10.0362 0 18.2069 0C26.3775 0 33 6.71506 33 15C33 23.2849 26.3775 30 18.2069 30L18.1829 29.9997C13.1739 29.9917 8.75853 27.454 6.09125 23.5925C5.73071 23.0705 5.85574 22.3511 6.3705 21.9854C6.88527 21.6198 7.59484 21.7466 7.95536 22.2686C10.2209 25.5486 13.9645 27.692 18.2069 27.692L18.2289 27.6923C25.1325 27.6802 30.7241 22.0029 30.7241 15C30.7241 7.98955 25.1207 2.30769 18.2069 2.30769C11.2931 2.30769 5.68965 7.98955 5.68965 15C5.68965 15.2205 5.69577 15.4397 5.70765 15.6577L7.16088 14.1842C7.60526 13.7335 8.32577 13.7335 8.77015 14.1842C9.21454 14.6348 9.21454 15.3652 8.77015 15.8158L5.72525 18.9034C5.71666 18.9123 5.70793 18.9212 5.69904 18.93L5.35636 19.2774C4.91197 19.728 4.19147 19.728 3.74708 19.2774L0.333289 15.8158C-0.111096 15.3652 -0.111096 14.6348 0.333289 14.1842C0.777674 13.7335 1.49818 13.7335 1.94257 14.1842L3.43052 15.6929C3.41948 15.4637 3.41379 15.2326 3.41379 15ZM18.9185 8.82286C18.9185 8.18562 18.409 7.66902 17.7805 7.66902C17.1521 7.66902 16.6426 8.18562 16.6426 8.82286V16.0737C16.6426 16.4805 16.8538 16.8572 17.1987 17.0652L22.7397 20.4083C23.2798 20.7342 23.978 20.5543 24.2994 20.0068C24.6207 19.4591 24.4435 18.7509 23.9034 18.4251L18.9185 15.4175V8.82286Z" fill="white"/>
</svg>
