<svg width="40" height="40" viewBox="0 0 40 40" fill="none" xmlns="http://www.w3.org/2000/svg">
<path d="M6.66663 30C6.66663 28.2319 7.369 26.5362 8.61925 25.286C9.86949 24.0358 11.5652 23.3334 13.3333 23.3334H26.6666C28.4347 23.3334 30.1304 24.0358 31.3807 25.286C32.6309 26.5362 33.3333 28.2319 33.3333 30C33.3333 30.8841 32.9821 31.7319 32.357 32.3571C31.7319 32.9822 30.884 33.3334 30 33.3334H9.99996C9.1159 33.3334 8.26806 32.9822 7.64294 32.3571C7.01782 31.7319 6.66663 30.8841 6.66663 30Z" stroke="white" stroke-width="1.5" stroke-linejoin="round"/>
<path d="M20 16.6667C22.7614 16.6667 25 14.4281 25 11.6667C25 8.90526 22.7614 6.66669 20 6.66669C17.2386 6.66669 15 8.90526 15 11.6667C15 14.4281 17.2386 16.6667 20 16.6667Z" stroke="white" stroke-width="1.5"/>
</svg>
